<?xml version="1.0" standalone="no"?>
<!DOCTYPE svg PUBLIC "-//W3C//DTD SVG 20010904//EN"
 "http://www.w3.org/TR/2001/REC-SVG-20010904/DTD/svg10.dtd">
<svg version="1.0" xmlns="http://www.w3.org/2000/svg"
 width="513.000000pt" height="513.000000pt" viewBox="0 0 513.000000 513.000000"
 preserveAspectRatio="xMidYMid meet">
<metadata>
Created by potrace 1.11, written by Peter Selinger 2001-2013
</metadata>
<g transform="translate(0.000000,513.000000) scale(0.100000,-0.100000)"
fill="#000000" stroke="none">
<path d="M2422 4234 c-39 -7 -99 -15 -134 -19 -90 -10 -94 -14 -97 -81 -1 -32
-4 -60 -5 -63 -2 -3 -7 -46 -11 -96 -4 -49 -9 -98 -10 -108 -2 -24 -11 -30
-90 -61 -38 -15 -102 -44 -141 -63 l-71 -36 -59 33 c-32 18 -77 45 -99 58 -22
14 -63 38 -90 53 -58 31 -47 36 -161 -67 -44 -39 -92 -83 -109 -97 l-30 -26
81 -160 81 -160 -35 -52 c-19 -29 -54 -92 -78 -141 -39 -78 -47 -88 -71 -89
-16 0 -37 -2 -48 -3 -11 -2 -47 -6 -80 -10 -33 -3 -94 -11 -135 -16 -41 -6
-87 -11 -102 -12 -16 -1 -28 -3 -28 -3 -2 -16 -42 -210 -44 -214 -3 -4 -7 -31
-11 -62 l-6 -54 63 -32 c35 -17 123 -59 196 -93 l132 -63 0 -35 c0 -19 7 -77
16 -130 l16 -95 -141 -135 c-77 -74 -141 -138 -141 -143 0 -8 26 -66 107 -237
14 -29 28 -54 32 -56 3 -2 38 2 76 10 39 7 84 16 100 19 17 3 70 14 120 23
l89 18 44 -51 c24 -27 64 -69 88 -93 l45 -42 -40 -198 c-30 -150 -37 -200 -28
-208 7 -6 72 -45 145 -86 l132 -75 83 85 c45 48 108 113 139 145 l57 59 93
-21 c91 -20 136 -29 169 -30 11 -1 42 -52 90 -149 103 -205 92 -191 142 -182
45 9 68 12 195 30 45 7 85 16 88 21 3 5 7 28 9 52 3 44 16 188 21 222 1 11 3
29 3 40 1 15 16 26 64 44 34 13 89 37 121 54 l60 29 55 -59 c31 -32 96 -101
146 -153 49 -52 88 -98 87 -102 -2 -9 62 -38 84 -38 40 0 299 94 318 115 22
25 136 293 131 309 -2 6 -6 24 -9 39 -6 23 -11 27 -34 25 -24 -3 -27 1 -30 28
-3 35 -28 62 -61 69 -33 6 -41 14 -41 41 0 28 -45 79 -61 69 -15 -10 -49 24
-42 41 7 18 -23 64 -42 64 -8 0 -15 2 -15 5 0 3 96 198 105 213 1 1 40 7 86
12 97 12 138 17 194 24 22 3 57 7 78 8 45 3 50 10 67 98 6 36 14 72 15 80 25
112 33 155 31 157 -6 6 -338 163 -345 163 -19 0 -29 29 -34 95 -7 75 -21 159
-33 188 -5 15 24 50 140 166 l148 148 -74 146 c-81 164 -71 157 -178 131 -36
-9 -76 -18 -90 -20 -14 -2 -64 -13 -112 -24 l-88 -20 -37 42 c-21 23 -58 61
-82 84 l-44 42 18 73 c9 41 28 121 41 179 14 58 27 110 29 117 4 12 -269 187
-284 181 -5 -2 -72 -64 -150 -139 l-141 -136 -58 14 c-31 8 -90 20 -130 25
l-73 10 -89 179 c-71 140 -93 177 -108 176 -11 0 -51 -6 -90 -13z"/>
</g>
</svg>
