<?xml version="1.0" encoding="UTF-8" standalone="no"?>
<svg width="946px" height="338px" viewBox="0 0 946 338" version="1.1" xmlns="http://www.w3.org/2000/svg" xmlns:xlink="http://www.w3.org/1999/xlink" xmlns:sketch="http://www.bohemiancoding.com/sketch/ns">
    <!-- Generator: Sketch 3.3.3 (12081) - http://www.bohemiancoding.com/sketch -->
    <title>Group</title>
    <desc>Created with Sketch.</desc>
    <defs></defs>
    <g id="Page-1" stroke="none" stroke-width="1" fill="none" fill-rule="evenodd" sketch:type="MSPage">
        <g id="Group" sketch:type="MSLayerGroup" transform="translate(-69.000000, -71.000000)">
            <g id="Group-Copy-3" transform="translate(338.242952, 357.973432) rotate(-43.000000) translate(-338.242952, -357.973432) translate(303.242952, 323.973432)" fill="#DA784E" sketch:type="MSShapeGroup">
                <g id="bulb" transform="translate(1.000000, 1.000000)">
                    <path d="M1,4.40322226 C1,1.41910501 3.36268452,-0.446289062 6.26866071,0.214189529 C6.26866071,0.214189529 25.9559994,5 35,5 C44.6195215,5 63.7543904,0.232296613 63.7543904,0.232296613 C66.6514606,-0.448282014 69,1.41394397 69,4.40322226 L69,5.59677774 C69,8.58089499 66.579844,11 63.6073153,11 L6.39268469,11 C3.41438718,11 1,8.58605603 1,5.59677774 L1,4.40322226 Z" id="Rectangle-2"></path>
                    <path d="M1,19.9200001 C1,16.6062916 3.68491872,13.9200001 6.99626862,13.9200001 C6.99626862,13.9200001 25.9559994,13.9200001 35,13.9200001 C44.6195215,13.9200001 63.0015401,13.9200001 63.0015401,13.9200001 C66.314398,13.9200001 69,16.6130343 69,19.9200001 L69,19.9200001 C69,23.2337086 66.3133751,25.9200001 62.9952831,25.9200001 L7.00471685,25.9200001 C3.68840331,25.9200001 1,23.2269659 1,19.9200001 L1,19.9200001 Z" id="Rectangle-2-Copy"></path>
                    <path d="M1,34.9200001 C1,31.6062916 3.68491872,28.9200001 6.99626862,28.9200001 C6.99626862,28.9200001 25.9559994,28.9200001 35,28.9200001 C44.6195215,28.9200001 63.0015401,28.9200001 63.0015401,28.9200001 C66.314398,28.9200001 69,31.6130343 69,34.9200001 L69,34.9200001 C69,38.2337086 66.3133751,40.9200001 62.9952831,40.9200001 L7.00471685,40.9200001 C3.68840331,40.9200001 1,38.2269659 1,34.9200001 L1,34.9200001 Z" id="Rectangle-2-Copy-2"></path>
                    <path d="M1,44 C16.0487175,44 25.9559994,44 35,44 C44.6195215,44 53.3757617,44 69,44 L69,44 C69,48.0653485 65.709044,52.7779182 61.6434457,54.5284017 L35,66 L8.35655428,54.5284017 C4.29364154,52.7790745 1,47.7882953 1,44 L1,44 Z" id="Rectangle-2-Copy-3"></path>
                </g>
            </g>
            <g id="gear-copy" transform="translate(235.837166, 234.363871) rotate(-41.000000) translate(-235.837166, -234.363871) translate(63.837166, 73.363871)" fill="#DA784E" sketch:type="MSShapeGroup">
                <g id="Group-Copy" transform="translate(172.220525, 161.168455) rotate(-1.000000) translate(-172.220525, -161.168455) translate(3.720525, 3.668455)">
                    <path d="M100.781327,245.803705 L99.953386,245.754495 C99.953386,245.754495 128.368441,266.945802 132.189768,296.041632 L132.189768,296.041632 C124.172805,293.799168 116.458265,290.832492 109.121135,287.216596 L82.8837474,309.560165 L55.6131499,290.090019 L66.7037224,254.411089 C60.5038363,247.238331 55.0492805,239.403446 50.4604269,231.026808 L10.2999737,232.7223 L0.797468877,200.590159 L34.4254646,177.276826 C34.1436133,173.721677 34,170.12761 34,166.5 C34,161.432133 34.2802877,156.42973 34.8262068,151.507448 L1.64184994,130.299425 L12.2880928,98.5279032 L52.3049757,98.7147553 C56.7472589,91.1163683 61.913541,83.9928586 67.7091907,77.4388575 L52.5332031,36.6699219 L80.15625,17.703125 L114.037317,43.4832524 L114.037323,43.48325 C123.635576,39.2275639 133.824797,36.0622466 144.447821,34.1444574 L154.597133,0.0613010016 L188.072382,1.5377081 L197.538928,35.1429 C208.300367,37.511172 218.578517,41.1681725 228.203329,45.9438522 L255.799905,22.442807 L283.070503,41.9129537 L271.303549,79.7678346 C277.098381,86.6294486 282.218716,94.0791475 286.562288,102.014674 L327.177041,101.718736 L335.552362,134.162936 L302.546773,155.37857 C302.846953,159.046025 303,162.755139 303,166.5 C303,170.66037 302.811106,174.776622 302.441427,178.840647 L336.687606,199.89464 L326.597474,231.847126 L285.7944,232.368804 C280.927799,241.01631 275.132573,249.071351 268.543947,256.398705 L283,295.2336 L255.376953,314.200397 L222.946393,289.523969 C215.026234,293.034357 206.703803,295.802356 198.067383,297.73968 L198.067383,297.73968 C200.883427,275.520617 218.081505,257.878054 226.154805,250.704032 C227.525883,249.620548 228.866916,248.500035 230.176433,247.343981 C230.279448,247.264999 230.333132,247.224963 230.333132,247.224963 L230.309405,247.226373 C250.270097,229.539332 262.872343,203.579351 262.872343,174.645136 C262.872343,121.349658 220.115536,78.145136 167.372343,78.145136 C114.629149,78.145136 71.8723427,121.349658 71.8723427,174.645136 C71.8723427,195.564308 78.4597347,214.928801 89.6527892,230.736136 C89.664186,230.759907 89.6758775,230.783941 89.6878655,230.808239 C92.6395413,236.790923 99.5739517,244.485323 100.781327,245.803705 Z M102.322363,245.895298 L103.008045,245.936053 C102.976866,245.907294 102.945705,245.878514 102.914564,245.849714 L102.322363,245.895298 Z" id="Path-1-Copy-29"></path>
                </g>
            </g>
            <g id="Rectangle-2-Copy-4-+-Rectangle-10-Copy-Copy" transform="translate(328.033698, 363.199887) scale(-1, 1) rotate(85.000000) translate(-328.033698, -363.199887) translate(299.033698, 327.699887)" fill="#852945" sketch:type="MSShapeGroup">
                <path d="M0.895655044,27.1198787 C1.76174877,26.4327443 2.54442759,25.7699258 3.2139194,25.1456146 C10.249192,18.5851167 20.9919833,2.04829003 20.9919833,2.04829003 C22.6466129,-0.425250805 25.6342609,-0.665004982 27.6729438,1.52121476 L28.4869467,2.39412598 C30.5221098,4.57657118 30.4019454,7.99633501 28.2279755,10.0235947 L5.15953896,31.5352598 L0.895655044,27.1198787 Z M7.18825044,33.636052 C7.94661798,32.9288628 8.6560647,32.2672931 9.29734483,31.6692897 C16.3326175,25.1087918 29.7763748,12.5722853 29.7763748,12.5722853 C32.1992457,10.3129216 36.0000156,10.450906 38.2553608,12.8694677 C40.5153046,15.2929606 40.382478,19.0898636 37.9557791,21.3527969 L15.5254207,42.2694445 L7.18825044,33.636052 Z M17.6097132,44.4277927 C18.2961913,43.7876415 18.940314,43.1869874 19.5273202,42.6395952 C26.5625929,36.0790973 40.0063502,23.5425908 40.0063502,23.5425908 C42.4292211,21.2832271 46.229991,21.4212115 48.4853362,23.8397732 C50.74528,26.2632662 50.6124534,30.0601691 48.1857545,32.3231024 L25.9468835,53.0611852 L17.6097132,44.4277927 Z M28.0867571,55.2770892 C28.6678061,54.7352523 29.2421725,54.1996469 29.8118554,53.668409 C36.8471281,47.1079111 43.2510368,41.1361696 54.6778813,30.4804647 C57.4504423,33.4536724 58.2575543,39.1446543 56.4779908,43.1976082 L44.8158194,69.7581904 L42.7763703,70.4886289 L28.0867571,55.2770892 Z" id="Rectangle-2-Copy-4"></path>
            </g>
            <path d="M531.17,222.473887 C525.604,226.829887 520.038,229.491887 515.561,229.491887 C510.721,229.491887 506.002,226.587887 501.404,221.626887 C519.433,216.060887 531.896,200.209887 531.896,180.849887 C531.896,156.649887 512.294,138.136887 487.005,138.136887 C461.716,138.136887 442.114,156.528887 442.114,180.849887 C442.114,205.049887 461.595,223.683887 486.884,223.804887 C493.66,235.178887 503.219,241.833887 513.867,241.833887 C521.732,241.833887 530.323,238.324887 536.857,232.516887 L531.17,222.473887 Z M456.634,180.849887 C456.634,164.030887 470.428,150.962887 487.126,150.962887 C503.703,150.962887 517.255,164.030887 517.255,180.849887 C517.255,197.668887 503.703,210.978887 487.126,210.978887 C470.549,210.978887 456.634,197.668887 456.634,180.849887 L456.634,180.849887 Z M606.553,158.827887 L592.638,158.827887 L592.638,190.529887 C592.638,201.782887 586.104,210.373887 574.972,210.615887 C565.655,210.615887 559.968,204.686887 559.968,195.006887 L559.968,158.827887 L546.053,158.827887 L546.053,198.878887 C546.053,214.245887 554.886,223.683887 569.648,223.683887 C580.175,223.562887 588.282,219.569887 592.638,210.615887 L592.638,223.199887 L606.553,223.199887 L606.553,158.827887 Z M665.722,223.199887 L679.395,223.199887 L679.274,180.970887 C679.153,166.813887 669.836,158.343887 653.259,158.343887 C641.038,158.343887 634.504,161.126887 625.55,166.450887 L631.237,176.130887 C637.65,171.774887 644.063,169.596887 650.234,169.596887 C660.398,169.596887 665.601,174.436887 665.601,182.543887 L665.601,184.479887 L646.12,184.479887 C630.632,184.600887 621.799,192.102887 621.799,203.839887 C621.799,215.213887 630.511,223.804887 644.426,223.804887 C653.743,223.804887 661.124,221.021887 665.722,215.334887 L665.722,223.199887 Z M647.33,212.793887 C639.586,212.793887 634.867,209.042887 634.867,203.234887 C634.867,197.063887 639.102,194.643887 648.177,194.643887 L665.601,194.643887 L665.601,200.572887 C664.875,207.590887 657.252,212.793887 647.33,212.793887 L647.33,212.793887 Z M735.66,158.343887 C724.77,158.343887 716.542,162.215887 711.944,171.169887 L711.944,158.827887 L698.029,158.827887 L698.029,223.199887 L711.944,223.199887 L711.944,188.956887 C712.912,178.913887 719.567,171.532887 730.215,171.411887 C739.895,171.411887 745.703,177.340887 745.703,187.020887 L745.703,223.199887 L759.618,223.199887 L759.618,183.148887 C759.618,167.781887 750.664,158.343887 735.66,158.343887 L735.66,158.343887 Z M811.164,208.437887 C807.413,210.252887 804.388,211.220887 801.484,211.220887 C797.128,211.220887 794.587,209.163887 794.587,202.508887 L794.587,171.653887 L813.584,171.653887 L813.584,161.247887 L794.587,161.247887 L794.587,143.581887 L780.793,143.581887 L780.793,161.247887 L771.718,161.247887 L771.718,171.653887 L780.793,171.653887 L780.793,205.049887 C780.793,218.238887 789.142,223.804887 798.822,223.804887 C804.267,223.804887 809.591,222.110887 814.673,219.085887 L811.164,208.437887 Z M885.942,158.827887 L872.027,158.827887 L872.027,190.529887 C872.027,201.782887 865.493,210.373887 854.361,210.615887 C845.044,210.615887 839.357,204.686887 839.357,195.006887 L839.357,158.827887 L825.442,158.827887 L825.442,198.878887 C825.442,214.245887 834.275,223.683887 849.037,223.683887 C859.564,223.562887 867.671,219.569887 872.027,210.615887 L872.027,223.199887 L885.942,223.199887 L885.942,158.827887 Z M990.486,158.343887 C978.749,158.343887 970.158,163.062887 966.044,173.831887 C963.019,164.030887 955.154,158.343887 943.659,158.343887 C933.011,158.343887 924.783,162.215887 920.306,171.290887 L920.306,158.827887 L906.512,158.827887 L906.512,223.199887 L920.306,223.199887 L920.306,191.376887 C920.306,180.123887 927.082,171.653887 938.214,171.290887 C947.652,171.290887 953.339,177.219887 953.339,187.020887 L953.339,223.199887 L967.254,223.199887 L967.254,191.376887 C967.254,180.123887 973.909,171.653887 984.92,171.290887 C994.358,171.290887 1000.166,177.219887 1000.166,187.020887 L1000.166,223.199887 L1014.081,223.199887 L1014.081,183.148887 C1014.081,167.781887 1005.248,158.343887 990.486,158.343887 L990.486,158.343887 Z M463.41,341.252887 L463.41,269.499887 L449.132,269.499887 L449.132,354.199887 L500.073,354.199887 L500.073,341.252887 L463.41,341.252887 Z M539.398,289.343887 C520.28,289.464887 506.849,302.653887 506.849,322.134887 C506.849,341.494887 519.917,354.683887 539.761,354.683887 C550.893,354.683887 560.089,350.690887 566.381,343.793887 L559,335.928887 C554.281,340.768887 547.868,343.430887 540.85,343.430887 C530.686,343.430887 523.063,337.259887 520.885,327.337887 L569.527,327.337887 C571.221,304.105887 562.025,289.343887 539.398,289.343887 L539.398,289.343887 Z M520.643,317.173887 C522.216,306.888887 529.355,300.475887 539.519,300.475887 C550.046,300.475887 556.943,306.767887 557.427,317.173887 L520.643,317.173887 Z M622.646,354.199887 L636.319,354.199887 L636.198,311.970887 C636.077,297.813887 626.76,289.343887 610.183,289.343887 C597.962,289.343887 591.428,292.126887 582.474,297.450887 L588.161,307.130887 C594.574,302.774887 600.987,300.596887 607.158,300.596887 C617.322,300.596887 622.525,305.436887 622.525,313.543887 L622.525,315.479887 L603.044,315.479887 C587.556,315.600887 578.723,323.102887 578.723,334.839887 C578.723,346.213887 587.435,354.804887 601.35,354.804887 C610.667,354.804887 618.048,352.021887 622.646,346.334887 L622.646,354.199887 Z M604.254,343.793887 C596.51,343.793887 591.791,340.042887 591.791,334.234887 C591.791,328.063887 596.026,325.643887 605.101,325.643887 L622.525,325.643887 L622.525,331.572887 C621.799,338.590887 614.176,343.793887 604.254,343.793887 L604.254,343.793887 Z M691.979,289.343887 C681.936,289.343887 674.192,293.457887 669.473,300.959887 L669.473,289.827887 L655.558,289.827887 L655.558,377.673887 L669.473,377.673887 L669.473,343.067887 C674.192,350.569887 681.936,354.683887 692.221,354.683887 C710.613,354.683887 722.713,341.494887 722.713,322.255887 C722.713,302.653887 710.25,289.343887 691.979,289.343887 L691.979,289.343887 Z M689.075,342.825887 C677.58,342.825887 669.473,334.234887 669.473,321.771887 C669.473,309.671887 677.58,300.959887 689.075,300.959887 C700.57,300.959887 708.677,309.792887 708.677,321.771887 C708.677,334.113887 700.57,342.825887 689.075,342.825887 L689.075,342.825887 Z" id="Quantum-Copy" fill="#FFFFFF" sketch:type="MSShapeGroup"></path>
            <path d="M183.04999,261.043871 L196.66999,235.663871 L189.82999,235.663871 L175.48999,262.063871 L175.48999,267.343871 L195.52999,267.343871 L195.52999,277.663871 L202.12999,277.663871 L202.12999,267.343871 L208.24999,267.343871 L208.24999,261.043871 L202.12999,261.043871 L202.12999,251.083871 L195.52999,251.083871 L195.52999,261.043871 L183.04999,261.043871 Z M230.38999,235.483871 C218.86999,235.483871 212.50999,243.043871 212.50999,256.663871 C212.50999,270.283871 218.86999,277.843871 230.38999,277.843871 C241.84999,277.843871 248.20999,270.283871 248.20999,256.663871 C248.20999,243.043871 241.84999,235.483871 230.38999,235.483871 L230.38999,235.483871 Z M230.38999,241.063871 C237.40999,241.063871 240.94999,245.983871 240.94999,256.663871 C240.94999,267.283871 237.40999,272.263871 230.38999,272.263871 C223.30999,272.263871 219.76999,267.283871 219.76999,256.663871 C219.76999,245.983871 223.30999,241.063871 230.38999,241.063871 L230.38999,241.063871 Z M283.84999,241.063871 L283.84999,235.663871 L253.30999,235.663871 L253.30999,247.903871 L259.54999,247.903871 L259.60999,242.023871 L275.92999,242.023871 L259.60999,277.663871 L267.10999,277.663871 L283.84999,241.063871 Z M301.54999,277.963871 C312.64999,277.963871 319.66999,269.203871 319.66999,255.823871 C319.66999,242.923871 313.18999,235.363871 302.56999,235.363871 C293.62999,235.363871 287.80999,240.763871 287.80999,249.463871 C287.80999,257.623871 292.90999,262.843871 301.30999,262.843871 C306.58999,262.843871 310.54999,260.803871 312.76999,256.903871 C313.00999,265.963871 309.22999,272.083871 301.06999,272.083871 C297.88999,272.083871 294.34999,271.123871 291.76999,269.443871 L289.00999,274.783871 C292.42999,276.703871 297.40999,277.963871 301.54999,277.963871 L301.54999,277.963871 Z M302.62999,257.263871 C297.52999,257.263871 294.40999,254.323871 294.40999,249.523871 C294.40999,244.423871 297.82999,241.483871 302.92999,241.483871 C308.98999,241.483871 311.68999,245.623871 311.62999,249.283871 C311.68999,253.603871 308.32999,257.263871 302.62999,257.263871 L302.62999,257.263871 Z" id="4079-copy" fill="#FFFFFF" sketch:type="MSShapeGroup"></path>
        </g>
    </g>
</svg>