<?xml version="1.0" encoding="utf-8"?>
<!-- Generator: Adobe Illustrator 15.0.0, SVG Export Plug-In . SVG Version: 6.00 Build 0)  -->
<!DOCTYPE svg PUBLIC "-//W3C//DTD SVG 1.1//EN" "http://www.w3.org/Graphics/SVG/1.1/DTD/svg11.dtd">
<svg version="1.1" id="Layer_1" xmlns:sketch="http://www.bohemiancoding.com/sketch/ns"
	 xmlns="http://www.w3.org/2000/svg" xmlns:xlink="http://www.w3.org/1999/xlink" x="0px" y="0px" width="966.886px"
	 height="356.9px" viewBox="-20.886 -18.9 966.886 356.9" enable-background="new -20.886 -18.9 966.886 356.9"
	 xml:space="preserve">
<title>Group</title>
<desc>Created with Sketch.</desc>
<g id="Page-1" sketch:type="MSPage">
	<g id="Group" transform="translate(-69.000000, -71.000000)" sketch:type="MSLayerGroup">
		
			<g id="Group-Copy-3" transform="translate(338.242952, 357.973432) rotate(-43.000000) translate(-338.242952, -357.973432) translate(303.242952, 323.973432)" sketch:type="MSShapeGroup">
			<g id="bulb" transform="translate(1.000000, 1.000000)">
				<path id="Rectangle-2" fill="#DA784E" d="M1,4.403C1,1.419,3.363-0.447,6.269,0.214C6.269,0.214,25.956,5,35,5
					c9.619,0,28.754-4.767,28.754-4.767C66.652-0.449,69,1.414,69,4.403l0,1.194C69,8.581,66.58,11,63.607,11L6.393,11
					C3.414,11,1,8.586,1,5.597L1,4.403z"/>
				<path id="Rectangle-2-Copy" fill="#DA784E" d="M1,19.92c0-3.313,2.686-6,5.996-6c0,0,18.959,0.001,28.004,0
					c9.619,0.001,28.001,0,28.001,0c3.313,0,5.998,2.693,5.999,6l0,0c0,3.314-2.687,6-6.005,6l-55.99,0
					C3.689,25.92,1,23.227,1,19.92L1,19.92z"/>
				<path id="Rectangle-2-Copy-2" fill="#DA784E" d="M1,34.92c0-3.314,2.686-6,5.996-6c0,0,18.96,0,28.004,0
					c9.619,0,28.001,0,28.001,0c3.313,0,5.999,2.693,5.999,6l0,0c0,3.314-2.687,6-6.005,6L7.005,40.92
					C3.689,40.92,0.999,38.227,1,34.92L1,34.92z"/>
				<path id="Rectangle-2-Copy-3" fill="#DA784E" d="M1,44C16.048,44,25.956,44,35,44c9.62,0,18.375,0.001,34,0l0,0
					c0,4.065-3.291,8.778-7.356,10.528L35,66L8.357,54.528C4.293,52.779,1,47.788,1,44L1,44z"/>
			</g>
		</g>
		
			<g id="gear-copy" transform="translate(235.837166, 234.363871) rotate(-41.000000) translate(-235.837166, -234.363871) translate(63.837166, 73.363871)" sketch:type="MSShapeGroup">
			
				<g id="Group-Copy" transform="translate(172.220525, 161.168455) rotate(-1.000000) translate(-172.220525, -161.168455) translate(3.720525, 3.668455)">
				<path id="Path-1-Copy-29" fill="#DA784D" d="M130.111,283.405c-8.017-2.243-15.731-5.21-23.068-8.826l-26.238,22.344
					l-27.27-19.47l11.091-35.679c-6.2-7.173-11.655-15.008-16.243-23.385l-40.161,1.696l-9.503-32.132l33.628-23.314
					c-0.281-3.556-0.425-7.149-0.426-10.777c0-5.068,0.281-10.071,0.827-14.993l-33.184-21.208L10.21,85.891l40.017,0.187
					c4.443-7.598,9.609-14.722,15.405-21.276L50.455,24.033L78.078,5.066l33.881,25.78c9.598-4.255,19.788-7.421,30.41-9.339
					l10.149-34.083l33.476,1.477l9.466,33.605c10.761,2.369,21.039,6.025,30.665,10.801l27.596-23.501l27.271,19.47l-11.767,37.855
					c5.795,6.862,10.915,14.311,15.259,22.247l40.615-0.296l8.376,32.444l-33.006,21.216c0.3,3.667,0.454,7.376,0.454,11.122
					c0,4.16-0.189,8.276-0.559,12.34l34.246,21.055l-10.09,31.952l-40.803,0.522c-4.866,8.648-10.662,16.702-17.251,24.03
					l14.456,38.835l-27.624,18.967l-32.43-24.677c-7.92,3.51-16.243,6.278-24.879,8.216c2.816-22.219,20.014-39.861,28.088-47.036
					c1.371-1.083,2.712-2.204,4.021-3.36c0.103-0.078,0.157-0.119,0.132-0.117c19.961-17.687,32.564-43.647,32.563-72.581
					c0-53.296-42.757-96.5-95.5-96.5c-52.743,0-95.499,43.204-95.5,96.5c0,10.012,1.47,19.92,4.582,29.435
					c2.973,9.092,6.877,17.94,12.549,25.687c12.373,16.9,29.054,30.785,38.11,50.001
					C127.463,272.283,129.367,277.739,130.111,283.405z"/>
			</g>
		</g>
		
			<g id="Rectangle-2-Copy-4-_x2B_-Rectangle-10-Copy-Copy" transform="translate(328.033698, 363.199887) scale(-1, 1) rotate(85.000000) translate(-328.033698, -363.199887) translate(299.033698, 327.699887)" sketch:type="MSShapeGroup">
			<path id="Rectangle-2-Copy-4" fill="#852945" d="M0.896,27.12c0.866-0.687,1.648-1.35,2.318-1.974
				C10.25,18.585,20.992,2.048,20.992,2.048c1.656-2.474,4.643-2.713,6.681-0.527l0.814,0.873c2.036,2.182,1.915,5.602-0.258,7.63
				L5.159,31.535L0.896,27.12z M7.188,33.636c0.758-0.708,1.468-1.369,2.109-1.967c7.035-6.56,20.479-19.097,20.479-19.097
				c2.423-2.259,6.224-2.121,8.479,0.297c2.26,2.424,2.128,6.22-0.299,8.483l-22.43,20.917L7.188,33.636z M17.61,44.428
				c0.687-0.64,1.331-1.241,1.918-1.788c7.035-6.56,20.479-19.097,20.479-19.097c2.423-2.259,6.223-2.121,8.479,0.297
				c2.26,2.424,2.127,6.22-0.3,8.483L25.947,53.061L17.61,44.428z M28.087,55.277c0.581-0.542,1.155-1.077,1.725-1.609
				c7.036-6.56,13.439-12.532,24.867-23.188c2.772,2.973,3.58,8.664,1.8,12.717L44.816,69.758l-2.04,0.73L28.087,55.277z"/>
		</g>
		<path id="Quantum-Copy" sketch:type="MSShapeGroup" fill="#FFFFFF" d="M531.17,222.474c-5.566,4.356-11.132,7.018-15.609,7.018
			c-4.84,0-9.559-2.904-14.156-7.865c18.028-5.566,30.492-21.417,30.492-40.777c0-24.2-19.603-42.713-44.892-42.713
			s-44.891,18.392-44.891,42.713c0,24.2,19.48,42.834,44.77,42.955c6.776,11.374,16.335,18.029,26.983,18.029
			c7.865,0,16.456-3.509,22.99-9.317L531.17,222.474z M456.634,180.85c0-16.819,13.794-29.887,30.492-29.887
			c16.577,0,30.129,13.068,30.129,29.887c0,16.819-13.552,30.129-30.129,30.129S456.634,197.669,456.634,180.85L456.634,180.85z
			 M606.553,158.828h-13.915v31.702c0,11.253-6.534,19.844-17.666,20.086c-9.316,0-15.004-5.929-15.004-15.609v-36.179h-13.915
			v40.051c0,15.367,8.833,24.805,23.596,24.805c10.526-0.121,18.634-4.114,22.989-13.068V223.2h13.915V158.828z M665.722,223.2
			h13.673l-0.12-42.229c-0.121-14.157-9.438-22.627-26.016-22.627c-12.221,0-18.755,2.783-27.709,8.107l5.688,9.68
			c6.413-4.356,12.825-6.534,18.997-6.534c10.164,0,15.366,4.84,15.366,12.947v1.936h-19.48
			c-15.488,0.121-24.321,7.623-24.321,19.36c0,11.374,8.712,19.965,22.627,19.965c9.317,0,16.698-2.783,21.296-8.47V223.2z
			 M647.33,212.794c-7.744,0-12.463-3.751-12.463-9.559c0-6.171,4.234-8.591,13.31-8.591h17.424v5.929
			C664.875,207.591,657.252,212.794,647.33,212.794L647.33,212.794z M735.66,158.344c-10.891,0-19.118,3.872-23.716,12.826v-12.342
			h-13.915V223.2h13.915v-34.243c0.968-10.043,7.623-17.424,18.271-17.545c9.68,0,15.488,5.929,15.488,15.609V223.2h13.915v-40.051
			C759.618,167.782,750.664,158.344,735.66,158.344L735.66,158.344z M811.164,208.438c-3.751,1.815-6.776,2.783-9.68,2.783
			c-4.356,0-6.897-2.057-6.897-8.712v-30.855h18.997v-10.406h-18.997v-17.666h-13.794v17.666h-9.075v10.406h9.075v33.396
			c0,13.189,8.349,18.755,18.029,18.755c5.444,0,10.769-1.694,15.851-4.719L811.164,208.438z M885.942,158.828h-13.915v31.702
			c0,11.253-6.534,19.844-17.666,20.086c-9.317,0-15.004-5.929-15.004-15.609v-36.179h-13.915v40.051
			c0,15.367,8.833,24.805,23.595,24.805c10.527-0.121,18.634-4.114,22.99-13.068V223.2h13.915V158.828z M990.486,158.344
			c-11.737,0-20.328,4.719-24.442,15.488c-3.025-9.801-10.89-15.488-22.385-15.488c-10.648,0-18.876,3.872-23.354,12.947v-12.463
			h-13.794V223.2h13.794v-31.823c0-11.253,6.776-19.723,17.908-20.086c9.438,0,15.125,5.929,15.125,15.73V223.2h13.915v-31.823
			c0-11.253,6.655-19.723,17.666-20.086c9.438,0,15.246,5.929,15.246,15.73V223.2h13.915v-40.051
			C1014.081,167.782,1005.248,158.344,990.486,158.344L990.486,158.344z M463.41,341.253V269.5h-14.278v84.699h50.941v-12.946
			H463.41z M539.398,289.344c-19.118,0.121-32.55,13.311-32.55,32.791c0,19.36,13.068,32.549,32.912,32.549
			c11.132,0,20.328-3.992,26.62-10.89L559,335.929c-4.719,4.841-11.132,7.502-18.15,7.502c-10.164,0-17.787-6.171-19.965-16.093
			h48.643C571.221,304.105,562.025,289.344,539.398,289.344L539.398,289.344z M520.643,317.174
			c1.573-10.285,8.713-16.697,18.876-16.697c10.527,0,17.425,6.291,17.908,16.697H520.643z M622.646,354.199h13.673l-0.121-42.229
			c-0.121-14.156-9.438-22.627-26.016-22.627c-12.221,0-18.755,2.783-27.709,8.107l5.688,9.68
			c6.413-4.355,12.826-6.534,18.997-6.534c10.164,0,15.367,4.841,15.367,12.947v1.937h-19.481
			c-15.488,0.121-24.321,7.623-24.321,19.359c0,11.374,8.712,19.965,22.627,19.965c9.317,0,16.698-2.783,21.297-8.47V354.199z
			 M604.254,343.794c-7.744,0-12.463-3.751-12.463-9.56c0-6.17,4.235-8.59,13.31-8.59h17.425v5.928
			C621.799,338.591,614.176,343.794,604.254,343.794L604.254,343.794z M691.978,289.344c-10.043,0-17.786,4.114-22.506,11.616
			v-11.132h-13.915v87.846h13.915v-34.605c4.72,7.502,12.463,11.615,22.748,11.615c18.393,0,30.492-13.188,30.492-32.428
			C722.713,302.654,710.25,289.344,691.978,289.344L691.978,289.344z M689.075,342.826c-11.495,0-19.603-8.592-19.603-21.055
			c0-12.1,8.107-20.812,19.603-20.812s19.602,8.833,19.602,20.812C708.677,334.113,700.57,342.826,689.075,342.826L689.075,342.826z
			"/>
		<path id="_x34_079-copy" sketch:type="MSShapeGroup" fill="#FFFFFF" d="M173.05,252.044l13.62-25.38h-6.84l-14.34,26.4v5.279
			h20.04v10.32h6.6v-10.32h6.12v-6.3h-6.12v-9.96h-6.6v9.96H173.05z M220.39,226.484c-11.52,0-17.88,7.56-17.88,21.18
			c0,13.619,6.36,21.18,17.88,21.18c11.46,0,17.82-7.561,17.82-21.18C238.21,234.044,231.85,226.484,220.39,226.484L220.39,226.484z
			 M220.39,232.064c7.02,0,10.56,4.92,10.56,15.6c0,10.619-3.54,15.6-10.56,15.6c-7.08,0-10.62-4.98-10.62-15.6
			C209.77,236.984,213.31,232.064,220.39,232.064L220.39,232.064z M273.85,232.064v-5.4h-30.54v12.24h6.24l0.06-5.881h16.32
			l-16.32,35.641h7.5L273.85,232.064z M291.55,268.964c11.1,0,18.12-8.76,18.12-22.14c0-12.9-6.48-20.46-17.1-20.46
			c-8.94,0-14.76,5.4-14.76,14.1c0,8.16,5.1,13.38,13.5,13.38c5.28,0,9.24-2.04,11.46-5.939c0.24,9.06-3.54,15.18-11.7,15.18
			c-3.18,0-6.72-0.96-9.3-2.641l-2.76,5.34C282.43,267.704,287.41,268.964,291.55,268.964L291.55,268.964z M292.63,248.264
			c-5.1,0-8.22-2.939-8.22-7.74c0-5.1,3.42-8.039,8.52-8.039c6.06,0,8.76,4.14,8.7,7.799
			C301.69,244.604,298.33,248.264,292.63,248.264L292.63,248.264z"/>
	</g>
</g>
</svg>
